Jump_normalized_Precision Landing15_filtered_grf
version=1
nRows=30
nColumns=37
inDegrees=yes
endheader
time		1_ground_force_vx		1_ground_force_vy		1_ground_force_vz		1_ground_force_px		1_ground_force_py		1_ground_force_pz		1_ground_torque_x		1_ground_torque_y		1_ground_torque_z		2_ground_force_vx		2_ground_force_vy		2_ground_force_vz		2_ground_force_px		2_ground_force_py		2_ground_force_pz		2_ground_torque_x		2_ground_torque_y		2_ground_torque_z		3_ground_force_vx		3_ground_force_vy		3_ground_force_vz		3_ground_force_px		3_ground_force_py		3_ground_force_pz		3_ground_torque_x		3_ground_torque_y		3_ground_torque_z		4_ground_force_vx		4_ground_force_vy		4_ground_force_vz		4_ground_force_px		4_ground_force_py		4_ground_force_pz		4_ground_torque_x		4_ground_torque_y		4_ground_torque_z		
0.224500		0.000000		-0.000000		-0.000000		0.103552		0.000000		0.319021		-0.000000		-0.000000		0.000000		-0.000000		-0.000000		-0.000000		-0.151368		0.000000		0.304495		-0.000000		0.000000		-0.000000		-7.212912		770.059945		127.770822		0.352956		1.253254		1.892053		6.736292		-22.694213		-106.284102		16.355225		627.490964		65.940792		-0.290369		1.263963		1.903226		0.884807		33.946832		3.567352		
0.227606		0.000000		-0.000000		-0.000000		0.103552		0.000000		0.319021		-0.000000		-0.000000		0.000000		-0.000000		-0.000000		-0.000000		-0.151368		0.000000		0.304495		-0.000000		0.000000		-0.000000		-6.953262		772.494263		124.885253		0.352951		1.253257		1.892089		6.712314		-23.325487		-106.395177		16.922641		624.380437		64.074060		-0.290352		1.263987		1.903321		0.917715		33.860160		3.474736		
0.230712		0.000000		0.000000		-0.000000		0.103552		0.000000		0.319021		0.000000		-0.000000		-0.000000		-0.000000		0.000000		-0.000000		-0.151368		0.000000		0.304495		-0.000000		0.000000		0.000000		-6.776577		774.059565		121.914290		0.352949		1.253272		1.892136		6.671386		-23.908661		-106.399955		17.286455		620.771472		62.265226		-0.290335		1.264005		1.903413		0.939553		33.740161		3.384238		
0.233818		0.000000		0.000000		0.000000		0.103552		0.000000		0.319021		0.000000		0.000000		-0.000000		-0.000000		0.000000		-0.000000		-0.151368		0.000000		0.304495		0.000000		0.000000		0.000000		-6.666396		774.663409		118.939190		0.352942		1.253297		1.892196		6.605062		-24.426894		-106.292576		17.428597		616.666045		60.463942		-0.290320		1.264016		1.903499		0.949376		33.591212		3.293608		
0.236924		0.000000		0.000000		0.000000		0.103552		0.000000		0.319021		0.000000		0.000000		-0.000000		-0.000000		0.000000		0.000000		-0.151368		0.000000		0.304495		0.000000		0.000000		0.000000		-6.609865		774.245024		116.027216		0.352929		1.253330		1.892270		6.513610		-24.867880		-106.068957		17.345554		612.079512		58.648908		-0.290310		1.264020		1.903577		0.947054		33.419072		3.202185		
0.240030		-0.000000		0.000000		0.000000		0.103552		0.000000		0.319021		0.000000		0.000000		-0.000000		-0.000000		0.000000		0.000000		-0.151368		0.000000		0.304495		0.000000		-0.000000		0.000000		-6.614811		772.787799		113.251498		0.352910		1.253368		1.892358		6.408105		-25.221899		-105.728927		17.051373		607.044795		56.812990		-0.290306		1.264018		1.903648		0.933378		33.229114		3.109894		
0.243136		-0.000000		0.000000		0.000000		0.103552		0.000000		0.319021		0.000000		0.000000		-0.000000		0.000000		0.000000		0.000000		-0.151368		0.000000		0.304495		0.000000		-0.000000		0.000000		-6.718303		770.323873		110.710905		0.352885		1.253403		1.892450		6.311590		-25.479117		-105.278007		16.582133		601.613022		54.944624		-0.290306		1.264015		1.903708		0.910261		33.025019		3.016136		
0.246242		-0.000000		-0.000000		0.000000		0.103552		0.000000		0.319021		-0.000000		0.000000		0.000000		0.000000		0.000000		0.000000		-0.151368		0.000000		0.304495		0.000000		-0.000000		0.000000		-6.965018		766.954201		108.403494		0.352862		1.253429		1.892535		6.243444		-25.646274		-104.724697		15.993278		595.849278		53.030910		-0.290307		1.264011		1.903759		0.880625		32.808803		2.919999		
0.249348		-0.000000		-0.000000		-0.000000		0.103552		0.000000		0.319021		-0.000000		-0.000000		0.000000		0.000000		-0.000000		0.000000		-0.151368		0.000000		0.304495		0.000000		-0.000000		-0.000000		-7.395115		762.812276		106.308723		0.352843		1.253444		1.892605		6.213619		-25.732856		-104.080947		15.350166		589.820222		51.064862		-0.290304		1.264009		1.903802		0.847943		32.581669		2.820822		
0.252455		-0.000000		-0.000000		-0.000000		0.103552		0.000000		0.319021		-0.000000		-0.000000		0.000000		0.000000		-0.000000		-0.000000		-0.151368		0.000000		0.304495		-0.000000		-0.000000		-0.000000		-8.028620		758.055799		104.357063		0.352832		1.253445		1.892653		6.219993		-25.753964		-103.360354		14.711618		583.588874		49.040377		-0.290299		1.264008		1.903839		0.815376		32.344838		2.718014		
0.255561		0.000000		-0.000000		-0.000000		0.103552		0.000000		0.319021		-0.000000		-0.000000		0.000000		0.000000		-0.000000		-0.000000		-0.151368		0.000000		0.304495		-0.000000		0.000000		-0.000000		-8.853689		752.849939		102.439598		0.352826		1.253436		1.892680		6.248601		-25.728627		-102.577195		14.111343		577.207996		46.929331		-0.290289		1.264009		1.903874		0.784745		32.099061		2.609781		
0.258667		0.000000		-0.000000		-0.000000		0.103552		0.000000		0.319021		-0.000000		-0.000000		0.000000		-0.000000		-0.000000		-0.000000		-0.151368		0.000000		0.304495		-0.000000		0.000000		-0.000000		-9.809618		747.350557		100.474909		0.352818		1.253425		1.892697		0.508328		-38.727264		-5.206551		13.548821		570.710063		44.709415		-0.290276		1.264010		1.903910		0.755969		31.843307		2.494602		
0.261773		0.000000		0.000000		-0.000000		0.103552		0.000000		0.319021		0.000000		-0.000000		-0.000000		-0.000000		-0.000000		-0.000000		-0.151368		0.000000		0.304495		-0.000000		0.000000		-0.000000		-10.806742		741.689456		98.432657		0.352801		1.253422		1.892722		0.559396		-38.392601		-5.095240		12.995958		564.102984		42.322111		-0.290263		1.264014		1.903951		0.727431		31.574928		2.368923		
0.264879		0.000000		0.000000		0.000000		0.103552		0.000000		0.319021		0.000000		0.000000		-0.000000		-0.000000		0.000000		-0.000000		-0.151368		0.000000		0.304495		-0.000000		0.000000		0.000000		-11.745047		735.968246		96.331458		0.352767		1.253436		1.892769		0.607010		-38.036471		-4.978624		12.418814		557.370489		39.706524		-0.290250		1.264019		1.903996		0.697209		31.291550		2.229178		
0.267985		0.000000		0.000000		0.000000		0.103552		0.000000		0.319021		0.000000		0.000000		-0.000000		-0.000000		0.000000		0.000000		-0.151368		0.000000		0.304495		0.000000		0.000000		0.000000		-12.538971		730.257267		94.240831		0.352710		1.253478		1.892857		0.646820		-37.670150		-4.861392		11.801936		550.490301		36.842010		-0.290241		1.264026		1.904043		0.664484		30.994266		2.074316		
0.271091		-0.000000		0.000000		0.000000		0.103552		0.000000		0.319021		0.000000		0.000000		-0.000000		-0.000000		0.000000		0.000000		-0.151368		0.000000		0.304495		0.000000		-0.000000		0.000000		-13.168480		724.607376		92.192158		0.352632		1.253542		1.892985		0.677972		-37.306037		-4.746466		11.163343		543.467063		33.751983		-0.290234		1.264032		1.904087		0.630407		30.690253		1.906014		
0.274197		-0.000000		0.000000		0.000000		0.103552		0.000000		0.319021		0.000000		0.000000		-0.000000		0.000000		0.000000		0.000000		-0.151368		0.000000		0.304495		0.000000		-0.000000		0.000000		-13.665596		719.050974		90.171046		0.352542		1.253622		1.893139		0.702332		-36.955064		-4.634271		10.550504		536.362585		30.514872		-0.290228		1.264037		1.904126		0.597831		30.392351		1.729086		
0.277303		-0.000000		-0.000000		0.000000		0.103552		0.000000		0.319021		0.000000		0.000000		0.000000		0.000000		0.000000		0.000000		-0.151368		0.000000		0.304495		0.000000		-0.000000		0.000000		-14.097862		713.607808		88.120627		0.352451		1.253705		1.893300		0.723553		-36.624937		-4.522670		10.020385		529.298735		27.226570		-0.290218		1.264039		1.904155		0.570117		30.114879		1.549073		
0.280409		-0.000000		-0.000000		-0.000000		0.103552		0.000000		0.319021		-0.000000		0.000000		0.000000		0.000000		-0.000000		0.000000		-0.151368		0.000000		0.304495		0.000000		-0.000000		-0.000000		-14.543605		708.296341		85.947829		0.352375		1.253775		1.893438		0.745771		-36.320187		-4.407253		9.617122		522.432010		23.945016		-0.290204		1.264035		1.904176		0.549830		29.868508		1.368983		
0.283515		-0.000000		-0.000000		-0.000000		0.103552		0.000000		0.319021		-0.000000		-0.000000		0.000000		0.000000		-0.000000		-0.000000		-0.151368		0.000000		0.304495		-0.000000		-0.000000		-0.000000		-15.050560		703.141564		83.566174		0.352326		1.253818		1.893530		0.771486		-36.042799		-4.283574		9.359382		515.903614		20.664570		-0.290178		1.264027		1.904190		0.538022		29.656612		1.187898		
0.286621		0.000000		-0.000000		-0.000000		0.103552		0.000000		0.319021		-0.000000		-0.000000		0.000000		0.000000		-0.000000		-0.000000		-0.151368		0.000000		0.304495		-0.000000		0.000000		-0.000000		-15.624042		698.176451		80.934919		0.352311		1.253830		1.893564		0.800976		-35.792447		-4.149178		9.241348		509.787842		17.333198		-0.290141		1.264017		1.904201		0.534310		29.474586		1.002154		
0.289727		0.000000		-0.000000		-0.000000		0.103552		0.000000		0.319021		-0.000000		-0.000000		0.000000		-0.000000		-0.000000		-0.000000		-0.151368		0.000000		0.304495		-0.000000		0.000000		-0.000000		-16.243587		693.441889		78.039316		0.352332		1.253809		1.893538		0.833129		-35.566433		-4.002613		9.237321		504.060891		13.883594		-0.290092		1.264005		1.904213		0.537163		29.311846		0.807343		
0.292833		0.000000		-0.000000		-0.000000		0.103552		0.000000		0.319021		-0.000000		-0.000000		-0.000000		-0.000000		-0.000000		-0.000000		-0.151368		0.000000		0.304495		-0.000000		0.000000		-0.000000		-16.884692		688.984943		74.869427		0.352389		1.253759		1.893451		0.866565		-35.360433		-3.842486		9.308776		498.624297		10.279048		-0.290036		1.263996		1.904226		0.544320		29.156452		0.601048		
0.295939		0.000000		0.000000		-0.000000		0.103552		0.000000		0.319021		0.000000		-0.000000		-0.000000		-0.000000		0.000000		-0.000000		-0.151368		0.000000		0.304495		-0.000000		0.000000		0.000000		-17.525202		684.838091		71.457857		0.352470		1.253689		1.893322		0.899981		-35.168876		-3.669615		9.405420		493.355088		6.560215		-0.289980		1.263991		1.904243		0.552847		28.999237		0.385604		
0.299045		0.000000		0.000000		0.000000		0.103552		0.000000		0.319021		0.000000		0.000000		-0.000000		-0.000000		0.000000		0.000000		-0.151368		0.000000		0.304495		0.000000		0.000000		0.000000		-18.162528		680.999499		67.861450		0.352558		1.253617		1.893177		0.933104		-34.986473		-3.486394		9.468446		488.164943		2.822197		-0.289927		1.263992		1.904259		0.559316		28.836703		0.166710		
0.302152		-0.000000		0.000000		0.000000		0.103552		0.000000		0.319021		0.000000		0.000000		-0.000000		-0.000000		0.000000		0.000000		-0.151368		0.000000		0.304495		0.000000		-0.000000		0.000000		-18.818008		677.417056		64.142967		0.352643		1.253553		1.893041		0.966985		-34.809843		-3.296059		9.442070		483.034998		-0.816560		-0.289885		1.263999		1.904274		0.560457		28.671684		-0.048475		
0.305258		-0.000000		0.000000		0.000000		0.103552		0.000000		0.319021		0.000000		0.000000		-0.000000		0.000000		0.000000		0.000000		-0.151368		0.000000		0.304495		0.000000		-0.000000		0.000000		-19.514496		673.990981		60.384255		0.352710		1.253510		1.892935		1.002893		-34.637863		-3.103278		9.290019		478.014658		-4.239659		-0.289854		1.264012		1.904287		0.554109		28.511512		-0.252884		
0.308364		-0.000000		0.000000		0.000000		0.103552		0.000000		0.319021		0.000000		0.000000		-0.000000		0.000000		0.000000		0.000000		-0.151368		0.000000		0.304495		0.000000		-0.000000		0.000000		-20.258845		670.602153		56.669388		0.352755		1.253494		1.892874		1.041358		-34.470719		-2.912956		9.003028		473.189902		-7.386257		-0.289835		1.264028		1.904298		0.539668		28.364441		-0.442759		
0.311470		-0.000000		-0.000000		0.000000		0.103552		0.000000		0.319021		-0.000000		0.000000		0.000000		0.000000		0.000000		0.000000		-0.151368		0.000000		0.304495		0.000000		-0.000000		-0.000000		-21.033308		667.144569		53.049007		0.352778		1.253502		1.892851		1.081649		-34.308237		-2.728071		8.596372		468.637261		-10.289929		-0.289820		1.264046		1.904308		0.517944		28.236104		-0.619985		
0.314576		-0.000000		-0.000000		-0.000000		0.103552		0.000000		0.319021		-0.000000		-0.000000		0.000000		0.000000		-0.000000		0.000000		-0.151368		0.000000		0.304495		-0.000000		-0.000000		-0.000000		-21.794405		663.545867		49.548917		0.352785		1.253526		1.892857		1.121608		-34.148136		-2.549941		8.100498		464.388177		-13.043111		-0.289809		1.264060		1.904318		0.490640		28.127606		-0.790013		
